<?xml version="1.0" encoding="UTF-8"?>
<svg width="272px" height="339px" viewBox="0 0 272 339" version="1.1" xmlns="http://www.w3.org/2000/svg" xmlns:xlink="http://www.w3.org/1999/xlink">
    <!-- Generator: Sketch 42 (36781) - http://www.bohemiancoding.com/sketch -->
    <title>beer</title>
    <desc>Created with Sketch.</desc>
    <defs>
        <path d="M29.6748106,0.628998329 L29.5614094,0.628998329 C13.514392,0.690234945 0.521645249,13.720026 0.540545439,29.7330232 C0.560957644,45.7467763 13.5847007,58.6752624 29.6324741,58.6140257 C45.6802476,58.5505211 58.6722383,45.52073 58.6533381,29.5107569 C58.6336819,13.5355602 45.6726875,0.628998329 29.6778346,0.628998329 L29.6748106,0.628998329 Z" id="path-1"></path>
        <path d="M29.4638845,0.17992981 L29.3512393,0.17992981 C13.3019538,0.241922434 0.311475134,13.2717135 0.330375324,29.2839546 C0.350787529,45.2969518 13.3745306,58.2269498 29.42306,58.1657132 C45.4700775,58.1014526 58.4620682,45.0709055 58.443168,29.0616884 C58.4235118,13.0872477 45.4617614,0.17992981 29.4669085,0.17992981 L29.4638845,0.17992981 Z" id="path-3"></path>
        <path d="M29.4593484,0.401440039 L29.3383872,0.401440039 C13.2936378,0.461920648 0.301647035,13.4909557 0.321303233,29.5039529 C0.339447415,45.5139259 13.3654585,58.4461921 29.4124759,58.3811754 C45.4610054,58.3199388 58.4529961,45.2901477 58.4325839,29.2779066 C58.4144397,13.3080019 45.4534453,0.401440039 29.4608604,0.401440039 L29.4593484,0.401440039 Z" id="path-5"></path>
        <path d="M29.5077329,0.0234362358 L29.3935757,0.0234362358 C13.3465583,0.0854288595 0.354567567,13.118244 0.371955742,29.1267051 C0.394635971,45.1404582 13.416867,58.0697003 29.4669085,58.0084637 C45.5146819,57.947227 58.5081847,44.9128999 58.4870165,28.9051948 C58.4666043,12.9307541 45.5056099,0.0234362358 29.5092449,0.0234362358 L29.5077329,0.0234362358 Z" id="path-7"></path>
        <path d="M20.2927562,0.49896502 L20.2156434,0.49896502 C9.27696934,0.540545439 0.417316199,9.42514683 0.430924336,20.3449207 C0.44528848,31.2594025 9.32837786,40.0759632 20.2670519,40.0343828 C31.211774,39.9935584 40.0676471,31.109713 40.053283,20.1899391 C40.0381628,9.30191759 31.2011899,0.49896502 20.2950242,0.49896502 L20.2927562,0.49896502 Z" id="path-9"></path>
        <path d="M31.1339053,0.0786247911 L31.011432,0.0786247911 C13.9611925,0.142885438 0.156493575,13.9868967 0.17690578,31.0031159 C0.196561978,48.0170671 14.0383052,61.7522133 31.0877888,61.6879527 C48.1372723,61.621424 61.9434832,47.7751447 61.920047,30.7619495 C61.9011468,13.7926028 48.1274442,0.0801368063 31.1384413,0.0786247911 L31.1339053,0.0786247911 Z" id="path-11"></path>
        <path d="M36.6066443,0.440752435 L36.4592228,0.440752435 C16.4892819,0.518621218 0.322815248,16.7304483 0.347763499,36.6550288 C0.37271175,56.5796093 16.5792468,72.6674511 36.5461637,72.5910944 C56.5153486,72.5162496 72.6840833,56.2998865 72.656111,36.375306 C72.6319188,16.50289 56.5055205,0.443020457 36.6081563,0.440752435 L36.6066443,0.440752435 Z" id="path-13"></path>
        <path d="M35.4446606,0.349275514 L35.3100913,0.349275514 C16.1619306,0.425632282 0.660750648,15.9691487 0.683430876,35.0772409 C0.706111105,54.1807971 16.2503835,69.6086444 35.3962761,69.5337996 C54.5429248,69.4619789 70.0456168,53.9131704 70.0236925,34.8081022 C69.9964763,15.7483945 54.5293166,0.350787529 35.4454166,0.349275514 L35.4446606,0.349275514 Z" id="path-15"></path>
        <path d="M20.4900742,0.377247796 C9.36769025,0.422608252 0.359103613,9.45387512 0.373467758,20.5520668 C0.387831902,31.6502584 9.41834276,40.6157527 20.5414827,40.5711482 C31.6646226,40.5288118 40.6701852,31.4990569 40.654309,20.3963292 C40.6399449,9.3230858 31.6555505,0.377247796 20.5656749,0.377247796 L20.4900742,0.377247796 Z" id="path-17"></path>
        <path d="M20.7146084,0.551129545 L20.6397637,0.551129545 C9.51813577,0.594221979 0.511061142,9.62851288 0.524669279,20.7267045 C0.539033423,31.8264082 9.56954428,40.7896344 20.6926842,40.747298 C31.8165801,40.7034495 40.8183627,31.6714267 40.8070226,20.572479 C40.7919024,9.49847957 31.806752,0.551129545 20.7161204,0.551129545 L20.7146084,0.551129545 Z" id="path-19"></path>
    </defs>
    <g id="Page-1" stroke="none" stroke-width="1" fill="none" fill-rule="evenodd">
        <g id="beer">
            <path d="M233.449086,235.89819 C233.44833,248.796436 222.958725,259.133328 210.251749,259.248997 L194.963007,259.294357 L194.902527,148.155947 L210.191268,148.109075 C223.116731,148.07581 233.452866,158.514763 233.531491,171.194523 L233.449086,235.89819 Z M178.475993,293.440953 C178.475993,300.957181 172.384084,307.04909 164.867856,307.04909 L161.843826,307.04909 C154.328354,307.04909 148.235689,300.957181 148.235689,293.440953 L148.235689,149.799508 C148.235689,142.284036 154.328354,136.191371 161.843826,136.191371 L164.867856,136.191371 C172.384084,136.191371 178.475993,142.284036 178.475993,149.799508 L178.475993,293.440953 Z M127.823484,293.440953 C127.823484,300.957181 121.730818,307.04909 114.215347,307.04909 L111.191316,307.04909 C103.675845,307.04909 97.5831794,300.957181 97.5831794,293.440953 L97.5831794,149.799508 C97.5831794,142.284036 103.675845,136.191371 111.191316,136.191371 L114.215347,136.191371 C121.730818,136.191371 127.823484,142.284036 127.823484,149.799508 L127.823484,293.440953 Z M76.4149665,293.440953 C76.4149665,300.957181 70.3223012,307.04909 62.8068295,307.04909 L59.7827991,307.04909 C52.2673275,307.04909 46.1746622,300.957181 46.1746622,293.440953 L46.1746622,149.799508 C46.1746622,142.284036 52.2673275,136.191371 59.7827991,136.191371 L62.8068295,136.191371 C70.3223012,136.191371 76.4149665,142.284036 76.4149665,149.799508 L76.4149665,293.440953 Z M194.650776,113.215544 L194.688576,101.569246 C194.640948,82.7045887 196.155987,81.2696862 174.295271,81.2916104 L52.7194201,81.6733943 C33.0700264,81.7527751 32.2905825,83.2080897 32.338967,102.073504 L32.4690003,313.814602 C32.441784,325.088187 41.7111933,334.022685 52.8623055,334.09375 L174.438157,333.71121 C185.73669,333.708186 194.719573,324.438021 194.815586,313.311857 L194.766445,294.444175 L210.055187,294.397303 C242.259599,294.274829 268.343374,268.126038 268.155884,236.060732 L268.316913,171.137066 C268.130179,139.074784 241.992728,113.116507 209.938762,113.169427 L194.650776,113.215544 Z" id="beer-mug" fill="#F9D812"></path>
            <g id="foam" transform="translate(29.510138, 66.354639)">
                <mask id="mask-2" fill="white">
                    <use xlink:href="#path-1"></use>
                </mask>
                <g id="Clip-13"></g>
                <polygon id="Fill-12" fill="#FFFBC5" mask="url(#mask-2)" points="-17.8115392 76.9804745 77.0046668 76.9804745 77.0046668 -17.7389625 -17.8115392 -17.7389625"></polygon>
            </g>
            <g id="foam" transform="translate(72.602571, 36.870342)">
                <mask id="mask-4" fill="white">
                    <use xlink:href="#path-3"></use>
                </mask>
                <g id="Clip-16"></g>
                <polygon id="Fill-15" fill="#FFFBC5" mask="url(#mask-4)" points="-18.0217093 76.531406 76.7944967 76.531406 76.7944967 -18.188031 -18.0217093 -18.188031"></polygon>
            </g>
            <g id="foam" transform="translate(114.182990, 45.942434)">
                <mask id="mask-6" fill="white">
                    <use xlink:href="#path-5"></use>
                </mask>
                <g id="Clip-19"></g>
                <polygon id="Fill-18" fill="#FFFBC5" mask="url(#mask-6)" points="-18.0307814 76.7491362 76.7846686 76.7491362 76.7846686 -17.9672768 -18.0307814 -17.9672768"></polygon>
            </g>
            <g id="foam" transform="translate(161.055461, 44.430418)">
                <mask id="mask-8" fill="white">
                    <use xlink:href="#path-7"></use>
                </mask>
                <g id="Clip-22"></g>
                <polygon id="Fill-21" fill="#FFFBC5" mask="url(#mask-8)" points="-17.9771049 76.3756685 76.8391011 76.3756685 76.8391011 -18.3437686 -17.9771049 -18.3437686"></polygon>
            </g>
            <g id="foam" transform="translate(165.591507, 18.726160)">
                <mask id="mask-10" fill="white">
                    <use xlink:href="#path-9"></use>
                </mask>
                <g id="Clip-25"></g>
                <polygon id="Fill-24" fill="#FFFBC5" mask="url(#mask-10)" points="-14.8827657 55.359413 55.3669731 55.359413 55.3669731 -14.8260652 -14.8827657 -14.8260652"></polygon>
            </g>
            <g id="foam" transform="translate(94.526792, 11.922091)">
                <mask id="mask-12" fill="white">
                    <use xlink:href="#path-11"></use>
                </mask>
                <g id="Clip-28"></g>
                <polygon id="Fill-27" fill="#FFFBC5" mask="url(#mask-12)" points="-18.7724249 80.6531595 80.8701337 80.6531595 80.8701337 -18.886582 -18.7724249 -18.886582"></polygon>
            </g>
            <g id="foam" transform="translate(40.850252, 2.850000)">
                <mask id="mask-14" fill="white">
                    <use xlink:href="#path-13"></use>
                </mask>
                <g id="Clip-31"></g>
                <polygon id="Fill-30" fill="#FFFBC5" mask="url(#mask-14)" points="-20.3366046 93.2958747 93.3412352 93.2958747 93.3412352 -20.2632719 -20.3366046 -20.2632719"></polygon>
            </g>
            <g id="foam" transform="translate(15.145993, 30.066274)">
                <mask id="mask-16" fill="white">
                    <use xlink:href="#path-15"></use>
                </mask>
                <g id="Clip-34"></g>
                <polygon id="Fill-33" fill="#FFFBC5" mask="url(#mask-16)" points="-19.5133123 89.750955 90.2181677 89.750955 90.2181677 -19.8656119 -19.5133123 -19.8656119"></polygon>
            </g>
            <g id="foam" transform="translate(4.561887, 78.450761)">
                <mask id="mask-18" fill="white">
                    <use xlink:href="#path-17"></use>
                </mask>
                <g id="Clip-37"></g>
                <polygon id="Fill-36" fill="#FFFBC5" mask="url(#mask-18)" points="-15.0475754 56.0050435 56.0776202 56.0050435 56.0776202 -15.0543795 -15.0475754 -15.0543795"></polygon>
            </g>
            <g id="foam" transform="translate(138.375233, 27.798251)">
                <mask id="mask-20" fill="white">
                    <use xlink:href="#path-19"></use>
                </mask>
                <g id="Clip-40"></g>
                <polygon id="Fill-39" fill="#FFFBC5" mask="url(#mask-20)" points="-14.8971299 56.1796813 56.2288217 56.1796813 56.2288217 -14.8804977 -14.8971299 -14.8804977"></polygon>
            </g>
        </g>
    </g>
</svg>